<?xml version="1.0" encoding="iso-8859-1"?>
<!-- Generator: Adobe Illustrator 19.0.0, SVG Export Plug-In . SVG Version: 6.00 Build 0)  -->
<svg version="1.1" id="Capa_1" xmlns="http://www.w3.org/2000/svg" xmlns:xlink="http://www.w3.org/1999/xlink" x="0px" y="0px"
	 viewBox="0 0 427.059 427.059" style="enable-background:new 0 0 427.059 427.059;" xml:space="preserve">
<g>

		<linearGradient id="SVGID_1_" gradientUnits="userSpaceOnUse" x1="213.5294" y1="459.5271" x2="213.5294" y2="-5.5729" gradientTransform="matrix(1 0 0 -1 0 429.0542)">
<stop offset="0" stop-color="#9f2fff"/><stop offset="1" stop-color="#0bb1d3"/>
	</linearGradient>
	<path style="fill:url(#SVGID_1_);" d="M364.845,11.044c-7.148-3.291-15.569-2.011-21.416,3.255l-27.754,24.575l-37.76-33.777
		c-7.586-6.796-19.071-6.796-26.657,0l-37.729,33.745L175.791,5.097c-7.588-6.796-19.074-6.796-26.662,0l-37.77,33.777L83.579,14.3
		c-8.197-7.286-20.749-6.547-28.035,1.65c-3.262,3.67-5.049,8.419-5.015,13.329v368.5c-0.066,10.983,8.784,19.939,19.766,20.005
		c4.913,0.03,9.663-1.761,13.334-5.025l27.754-24.574l37.76,33.777c7.586,6.796,19.071,6.796,26.657,0l37.729-33.751l37.735,33.746
		c7.588,6.795,19.074,6.795,26.662,0l37.77-33.776l27.78,24.574c8.196,7.288,20.748,6.552,28.035-1.644
		c3.265-3.672,5.053-8.423,5.018-13.337V29.279C376.628,21.412,372.033,14.242,364.845,11.044L364.845,11.044z M356.629,397.77
		l-27.724-24.569c-7.587-6.721-19.007-6.691-26.558,0.071l-37.759,33.776l-37.73-33.745c-7.587-6.796-19.073-6.796-26.66,0
		l-37.734,33.745l-37.775-33.776c-7.522-6.761-18.922-6.792-26.481-0.072l-27.679,24.568v-53.306l-0.1-315.178l27.724,24.569
		c7.587,6.721,19.007,6.691,26.558-0.071l37.759-33.776l37.73,33.745c7.588,6.796,19.072,6.796,26.66,0l37.734-33.745l37.775,33.776
		c7.522,6.761,18.922,6.792,26.481,0.072l27.679-24.575v253.312L356.629,397.77z"/>

		<linearGradient id="SVGID_2_" gradientUnits="userSpaceOnUse" x1="213.5289" y1="459.5271" x2="213.5289" y2="-5.5729" gradientTransform="matrix(1 0 0 -1 0 429.0542)">
		<stop offset="0" stop-color="#9f2fff"/><stop offset="1" stop-color="#0bb1d3"/>
	</linearGradient>
	<path style="fill:url(#SVGID_2_);" d="M308.322,203.527H118.736c-5.523,0-10,4.477-10,10c0,5.523,4.477,10,10,10h189.586
		c5.523,0,10-4.477,10-10C318.322,208.004,313.845,203.527,308.322,203.527z"/>
</g>
<linearGradient id="SVGID_3_" gradientUnits="userSpaceOnUse" x1="168.5289" y1="459.5271" x2="168.5289" y2="-5.5729" gradientTransform="matrix(1 0 0 -1 0 429.0542)">
	<stop offset="0" stop-color="#9f2fff"/><stop offset="1" stop-color="#0bb1d3"/>
</linearGradient>
<path style="fill:url(#SVGID_3_);" d="M118.736,163.527h99.586c5.523,0,10-4.477,10-10s-4.477-10-10-10h-99.586
	c-5.523,0-10,4.477-10,10S113.213,163.527,118.736,163.527z"/>
<linearGradient id="SVGID_4_" gradientUnits="userSpaceOnUse" x1="213.5289" y1="459.5271" x2="213.5289" y2="-5.5729" gradientTransform="matrix(1 0 0 -1 0 429.0542)">
<stop offset="0" stop-color="#9f2fff"/><stop offset="1" stop-color="#0bb1d3"/>
</linearGradient>
<path style="fill:url(#SVGID_4_);" d="M308.322,263.527H118.736c-5.523,0-10,4.477-10,10s4.477,10,10,10h189.586
	c5.523,0,10-4.477,10-10S313.845,263.527,308.322,263.527z"/>
<g>
</g>
<g>
</g>
<g>
</g>
<g>
</g>
<g>
</g>
<g>
</g>
<g>
</g>
<g>
</g>
<g>
</g>
<g>
</g>
<g>
</g>
<g>
</g>
<g>
</g>
<g>
</g>
<g>
</g>
</svg>
