<svg width="169" height="151" viewBox="0 0 169 151" fill="none" xmlns="http://www.w3.org/2000/svg">
<path d="M21.6748 18.1137V12.6915L157.568 12.3527V90.9743H151.299V18.1137H21.6748Z" fill="#349256" stroke="#349256"/>
<path d="M33.0273 7.09996V1H168.412V79.4522H162.313V7.09996H33.0273Z" fill="#349256" stroke="#349256"/>
<path d="M11 101.988V23.8748H146.555V101.988H11Z" fill="#349256" stroke="#349256"/>
<circle cx="78.9463" cy="63.0163" r="35.2442" fill="white"/>
<path d="M90.4688 44.5469L88.2661 48.2746L82.3355 48.6135C84.176 50.4707 84.3689 53.5274 84.3689 53.5274H90.8077L88.0966 57.7634H84.3689C83.1318 64.2444 80.3238 66.3212 71.9995 67.5912L88.7744 85.5521H81.1494L64.8829 67.93V63.5245H71.6606C76.0003 62.4273 77.5174 61.163 78.6078 57.7634H63.5273L66.2384 53.5274H78.6078C77.4385 50.5125 75.9572 49.4442 72.3384 48.2746H63.5273L66.2384 44.5469H90.4688Z" fill="#349256" stroke="#349256"/>
<path d="M43.3161 139.802L38.8081 135.248C37.5508 136.413 36.2781 137.333 34.9901 138.008C33.7328 138.683 32.1841 139.02 30.3441 139.02C28.9641 139.02 27.6914 138.759 26.5261 138.238C25.3914 137.686 24.4101 136.95 23.5821 136.03C22.7848 135.11 22.1561 134.037 21.6961 132.81C21.2361 131.583 21.0061 130.28 21.0061 128.9V128.808C21.0061 127.428 21.2361 126.14 21.6961 124.944C22.1561 123.717 22.8001 122.644 23.6281 121.724C24.4561 120.804 25.4374 120.083 26.5721 119.562C27.7374 119.041 28.9948 118.78 30.3441 118.78C31.9694 118.78 33.4261 119.102 34.7141 119.746C36.0328 120.39 37.3208 121.279 38.5781 122.414L43.0861 117.216C42.3501 116.48 41.5528 115.805 40.6941 115.192C39.8354 114.579 38.9001 114.057 37.8881 113.628C36.8761 113.199 35.7414 112.861 34.4841 112.616C33.2574 112.371 31.8928 112.248 30.3901 112.248C27.9061 112.248 25.6368 112.693 23.5821 113.582C21.5274 114.441 19.7641 115.637 18.2921 117.17C16.8201 118.673 15.6701 120.436 14.8421 122.46C14.0141 124.453 13.6001 126.6 13.6001 128.9V128.992C13.6001 131.292 14.0141 133.454 14.8421 135.478C15.6701 137.502 16.8201 139.265 18.2921 140.768C19.7641 142.24 21.5121 143.405 23.5361 144.264C25.5601 145.123 27.7528 145.552 30.1141 145.552C31.6781 145.552 33.0888 145.414 34.3461 145.138C35.6034 144.893 36.7534 144.525 37.7961 144.034C38.8694 143.513 39.8508 142.899 40.7401 142.194C41.6294 141.489 42.4881 140.691 43.3161 139.802ZM80.359 145L66.559 112.57H60.027L46.227 145H53.449L56.393 137.778H70.009L72.953 145H80.359ZM67.479 131.522H58.923L63.201 121.08L67.479 131.522ZM108.605 135.478V135.386C108.605 133.975 108.375 132.764 107.915 131.752C107.486 130.74 106.826 129.866 105.937 129.13C105.078 128.363 104.005 127.719 102.717 127.198C101.46 126.646 100.018 126.155 98.3928 125.726C97.0128 125.358 95.8628 125.036 94.9428 124.76C94.0535 124.484 93.3482 124.193 92.8268 123.886C92.3055 123.579 91.9375 123.242 91.7228 122.874C91.5388 122.475 91.4468 122.015 91.4468 121.494V121.402C91.4468 120.605 91.7842 119.945 92.4588 119.424C93.1642 118.872 94.2068 118.596 95.5868 118.596C96.9668 118.596 98.3468 118.887 99.7268 119.47C101.107 120.022 102.518 120.789 103.959 121.77L107.639 116.434C105.983 115.115 104.158 114.103 102.165 113.398C100.202 112.693 98.0402 112.34 95.6788 112.34C94.0228 112.34 92.5048 112.57 91.1248 113.03C89.7448 113.49 88.5488 114.149 87.5368 115.008C86.5555 115.867 85.7888 116.894 85.2368 118.09C84.6848 119.255 84.4088 120.574 84.4088 122.046V122.138C84.4088 123.733 84.6542 125.067 85.1448 126.14C85.6662 127.213 86.3868 128.118 87.3068 128.854C88.2268 129.559 89.3462 130.157 90.6648 130.648C91.9835 131.139 93.4555 131.583 95.0808 131.982C96.4302 132.319 97.5188 132.641 98.3468 132.948C99.2055 133.255 99.8648 133.561 100.325 133.868C100.816 134.175 101.138 134.512 101.291 134.88C101.475 135.217 101.567 135.616 101.567 136.076V136.168C101.567 137.119 101.153 137.87 100.325 138.422C99.5275 138.943 98.3928 139.204 96.9208 139.204C95.0808 139.204 93.3788 138.851 91.8148 138.146C90.2815 137.441 88.7788 136.49 87.3068 135.294L83.1208 140.308C85.0528 142.056 87.1995 143.359 89.5608 144.218C91.9222 145.046 94.3295 145.46 96.7828 145.46C98.5308 145.46 100.126 145.245 101.567 144.816C103.008 144.356 104.25 143.712 105.293 142.884C106.336 142.025 107.148 140.983 107.731 139.756C108.314 138.499 108.605 137.073 108.605 135.478ZM141.985 145V112.8H134.901V125.542H121.837V112.8H114.753V145H121.837V132.074H134.901V145H141.985Z" fill="black"/>
</svg>
