<svg version="1.1" id="Layer_1" xmlns="http://www.w3.org/2000/svg" xmlns:xlink="http://www.w3.org/1999/xlink" x="0px" y="0px"
	 width="100%" viewBox="0 0 1024 1024" enable-background="new 0 0 1024 1024" xml:space="preserve">
<path fill="#FFFFFF" opacity="1.000000" stroke="none" 
	d="
M673.000000,1025.000000 
	C448.666656,1025.000000 224.833328,1025.000000 1.000000,1025.000000 
	C1.000000,683.666687 1.000000,342.333344 1.000000,1.000000 
	C342.333344,1.000000 683.666687,1.000000 1025.000000,1.000000 
	C1025.000000,342.333344 1025.000000,683.666687 1025.000000,1025.000000 
	C907.833313,1025.000000 790.666687,1025.000000 673.000000,1025.000000 
M296.075500,212.964996 
	C296.050507,277.654816 296.024689,342.344666 296.008423,407.034485 
	C296.008179,408.027954 296.126068,409.021454 296.059967,410.942200 
	C296.048248,477.113190 296.030273,543.284180 296.063721,609.455139 
	C296.064484,610.990845 296.645325,612.526245 297.001068,614.870483 
	C296.979370,616.214844 296.957642,617.559204 296.210541,619.394226 
	C296.198975,625.279358 296.187408,631.164551 296.012421,637.967957 
	C296.012421,704.512207 296.012421,771.056519 296.012421,838.000000 
	C298.172638,838.000000 299.959045,838.000000 301.745422,838.000000 
	C356.516052,838.000000 411.286682,838.007202 466.057312,837.992126 
	C474.043274,837.989929 482.029236,837.881592 490.934052,837.945312 
	C505.621155,837.907349 520.308228,837.869385 535.921570,837.988098 
	C600.588989,837.988098 665.256409,837.988098 730.000000,837.988098 
	C730.000000,784.683350 730.009583,732.081421 729.992859,679.479431 
	C729.988892,666.997803 729.896667,654.516235 729.975098,641.105347 
	C729.927734,631.401855 729.880432,621.698425 729.967834,611.091492 
	C729.927368,608.045532 729.886902,604.999634 729.989197,601.031860 
	C729.989197,463.440948 729.989197,325.850006 729.989197,188.000000 
	C728.162354,188.000000 726.856323,188.000000 725.550354,188.000000 
	C597.893188,188.000000 470.235992,187.999664 342.578827,188.005234 
	C341.414734,188.005280 340.250671,188.084213 338.145721,188.017365 
	C331.068420,188.053253 323.991089,188.089142 315.991882,188.008835 
	C309.444336,188.008835 302.896790,188.008835 296.195770,188.008835 
	C296.195770,196.301590 296.195770,204.170807 296.075500,212.964996 
z"/>
<path fill="#000000" opacity="1.000000" stroke="none" 
	d="
M339.086578,188.126328 
	C340.250671,188.084213 341.414734,188.005280 342.578827,188.005234 
	C470.235992,187.999664 597.893188,188.000000 725.550354,188.000000 
	C726.856323,188.000000 728.162354,188.000000 729.989197,188.000000 
	C729.989197,325.850006 729.989197,463.440948 729.591309,601.243774 
	C728.795044,597.028687 728.775269,592.527039 727.919861,588.190125 
	C726.124146,579.086975 723.889221,570.070557 721.888916,560.628540 
	C717.087585,547.886414 712.231995,535.534241 707.244873,522.887695 
	C702.424561,514.694031 697.735779,506.794708 693.014526,498.545959 
	C687.692810,491.442230 682.403442,484.687958 676.963257,477.634094 
	C671.186584,471.695984 665.884094,465.679077 659.847656,460.521057 
	C653.284180,454.912659 646.038635,450.102448 638.932495,444.639526 
	C629.519958,438.939178 620.265564,433.543549 610.690735,427.974854 
	C600.250427,423.915771 590.130493,420.029816 579.616821,416.082886 
	C569.817322,414.060303 560.411560,412.098724 550.602661,410.051331 
	C542.525818,408.977570 534.870178,407.347290 527.174805,407.131866 
	C509.775879,406.644836 492.406342,406.956085 475.111725,409.869507 
	C453.097748,413.577972 432.071594,420.065430 412.051880,429.516693 
	C411.955505,404.702179 411.896149,380.353394 411.907471,355.540344 
	C411.929871,338.053101 411.881592,321.030182 411.905151,303.542908 
	C411.597473,289.387604 411.217896,275.696625 410.907532,261.598724 
	C410.656616,259.772186 410.321136,258.355804 410.018738,256.932434 
	C406.288422,239.373749 399.030640,223.772034 384.914795,211.591080 
	C378.199127,206.527206 372.088135,200.828156 364.917297,197.257568 
	C356.803253,193.217346 347.738129,191.087097 339.086578,188.126328 
z"/>
<path fill="#000000" opacity="1.000000" stroke="none" 
	d="
M490.015198,837.822388 
	C482.029236,837.881592 474.043274,837.989929 466.057312,837.992126 
	C411.286682,838.007202 356.516052,838.000000 301.745422,838.000000 
	C299.959045,838.000000 298.172638,838.000000 296.012421,838.000000 
	C296.012421,771.056519 296.012421,704.512207 296.373169,637.772339 
	C297.138397,641.870667 297.402954,646.183533 297.978546,650.454468 
	C298.956207,657.708862 300.129822,664.936890 301.277283,672.378479 
	C301.532532,672.784607 301.762939,672.942383 302.022644,673.016479 
	C302.020630,672.978577 301.944916,672.973206 301.997223,673.395203 
	C303.026672,677.561890 304.003784,681.306580 304.994019,685.025757 
	C305.007111,685.000244 304.951263,684.987000 304.986572,685.382202 
	C305.673187,687.866943 306.324524,689.956482 306.989319,692.022339 
	C307.002777,691.998596 306.948395,691.994873 306.977722,692.346069 
	C307.329254,693.480164 307.651459,694.263000 307.988403,695.022766 
	C308.003143,694.999695 307.948853,694.992737 307.978058,695.359009 
	C308.335693,696.580383 308.664124,697.435547 308.981018,698.493774 
	C308.969482,698.696838 309.164764,699.053650 309.235229,699.305786 
	C309.618195,699.967224 309.930664,700.376404 310.149597,701.159424 
	C311.774506,705.734436 313.492950,709.935791 315.236145,714.358887 
	C315.450531,714.828552 315.697815,714.985657 316.003448,715.021118 
	C316.004150,714.990234 315.942505,714.994141 315.968811,715.345581 
	C316.317017,716.479004 316.638916,717.260986 316.980682,718.022461 
	C317.000580,718.002075 316.945007,718.014404 316.971405,718.329529 
	C317.319275,719.111389 317.640747,719.578125 317.981506,720.023682 
	C318.000763,720.002441 317.944885,720.014709 317.971008,720.329834 
	C318.318634,721.111572 318.640137,721.578186 318.981201,722.023682 
	C319.000763,722.002563 318.944641,722.015259 318.970612,722.330444 
	C319.318329,723.112000 319.640076,723.578430 319.981262,724.023682 
	C320.000732,724.002441 319.944641,724.015259 319.970612,724.330322 
	C320.318298,725.111938 320.640045,725.578491 320.979584,726.021606 
	C320.997406,725.998291 320.947571,726.029968 320.973694,726.358765 
	C321.656128,727.474487 322.312408,728.261414 322.984344,729.024170 
	C322.999969,729.000000 322.945312,729.017883 322.973083,729.377869 
	C324.319336,731.844971 325.637848,733.952087 326.978088,736.032471 
	C326.999756,736.005737 326.931793,736.016602 326.961914,736.331177 
	C327.311646,737.116211 327.631256,737.586731 327.975403,738.030701 
	C328.000000,738.004150 327.931335,738.026672 327.962402,738.355103 
	C328.646332,739.475403 329.299164,740.267334 329.976807,741.034424 
	C330.001556,741.009583 329.932129,741.018921 329.961609,741.333130 
	C330.310211,742.117065 330.629272,742.586792 330.976593,743.037109 
	C331.004822,743.017761 330.939301,743.029419 331.009399,743.287354 
	C331.377441,743.718262 331.675385,743.891357 331.984436,744.032593 
	C331.995544,744.000671 331.930237,744.018066 331.959991,744.332581 
	C332.309326,745.117188 332.628906,745.587219 332.976715,746.037354 
	C333.004944,746.017395 332.938599,746.029602 333.008881,746.287354 
	C333.376984,746.718262 333.674835,746.891357 333.981873,747.031006 
	C333.991089,746.997559 333.928162,747.026794 333.959808,747.355225 
	C334.644287,748.475830 335.297119,749.267944 335.975952,750.035522 
	C336.001923,750.010986 335.931122,750.020386 335.960449,750.334290 
	C336.308502,751.117310 336.627228,751.586365 336.975037,752.037231 
	C337.004089,752.018921 336.939911,752.031921 337.009399,752.288879 
	C337.375732,752.717651 337.672607,752.889465 337.984131,753.031250 
	C337.998810,753.001221 337.938721,753.030396 338.008667,753.288086 
	C338.376282,753.718506 338.673920,753.891357 338.973633,754.028809 
	C338.975739,753.993469 338.927734,754.045776 338.958984,754.372498 
	C339.642212,755.485474 340.294159,756.271790 340.975464,757.039673 
	C341.004822,757.021240 340.938446,757.030518 341.008301,757.288086 
	C341.375671,757.718140 341.673248,757.890686 341.972687,758.028198 
	C341.974548,757.993103 341.928650,758.046570 341.959656,758.373047 
	C342.642120,759.485291 343.293549,760.270996 343.973022,761.029541 
	C344.001099,761.002319 343.940948,761.049683 344.033875,761.331909 
	C344.735077,762.096619 345.343384,762.579102 345.978516,763.038940 
	C346.005341,763.016296 345.937225,763.029602 346.008026,763.287231 
	C346.376495,763.718628 346.674164,763.892334 346.973846,764.029968 
	C346.975830,763.993896 346.925781,764.046082 346.958771,764.380249 
	C347.649963,765.557068 348.308136,766.399597 349.062439,767.487000 
	C349.693268,768.166199 350.227966,768.600647 350.915955,769.301331 
	C351.697296,770.065247 352.325378,770.562927 352.979187,771.036987 
	C353.004883,771.013367 352.937653,771.029724 353.008392,771.286804 
	C353.376343,771.716492 353.673584,771.889160 353.984436,772.031372 
	C353.998108,772.001038 353.938080,772.029785 354.008606,772.286926 
	C354.376343,772.716553 354.673553,772.889038 354.984497,773.031250 
	C354.998199,773.001038 354.938385,773.029846 355.008850,773.286926 
	C355.376434,773.716492 355.673615,773.888916 355.984497,774.031189 
	C355.998230,774.001038 355.938568,774.029785 356.009033,774.286865 
	C356.376648,774.716370 356.673798,774.888794 356.984558,775.031128 
	C356.998169,775.001038 356.938660,775.029663 357.009155,775.286743 
	C357.376831,775.716248 357.673981,775.888733 357.984680,776.031128 
	C357.998169,776.001038 357.938721,776.029480 358.009277,776.286560 
	C358.376984,776.716125 358.674164,776.888611 358.984741,777.031067 
	C358.998169,777.001038 358.938782,777.029297 359.009338,777.286377 
	C359.377106,777.716003 359.674316,777.888489 359.984924,778.031067 
	C359.998260,778.001099 359.938904,778.029053 360.009460,778.286194 
	C360.377258,778.715881 360.674469,778.888428 360.984985,779.031006 
	C360.998291,779.001099 360.938995,779.028870 361.009644,779.286011 
	C361.377441,779.715698 361.674622,779.888306 361.985107,780.031006 
	C361.998383,780.001099 361.939087,780.028625 362.009979,780.285645 
	C362.377930,780.715393 362.675018,780.888184 362.979523,781.028076 
	C362.986969,780.995239 362.940704,781.045105 363.040375,781.334717 
	C363.750702,782.161926 364.361359,782.699463 365.066467,783.481384 
	C365.693146,784.158569 366.225311,784.591431 366.933655,785.318420 
	C368.391815,786.430481 369.673798,787.248352 370.981262,788.039673 
	C371.006714,788.013184 370.942169,788.044312 371.036011,788.326294 
	C371.738525,789.089966 372.347198,789.571655 372.977081,790.026123 
	C372.998291,789.998840 372.948700,790.049072 373.063110,790.355469 
	C374.104889,791.129211 375.032257,791.596558 375.982971,792.037476 
	C376.006317,792.011108 375.947266,792.044922 376.086304,792.373291 
	C376.799469,792.853821 377.373627,793.005981 377.881348,793.125549 
	C377.814941,793.092957 377.766205,793.232666 377.680206,793.566772 
	C378.707642,794.626282 379.821045,795.351807 381.059021,796.375305 
	C382.101959,797.139648 383.020355,797.605957 384.014526,798.311523 
	C384.467590,798.870667 384.844818,799.190491 385.412354,799.765869 
	C386.480042,800.523438 387.357391,801.025452 388.426300,801.779663 
	C389.490265,802.530518 390.362640,803.029053 391.451294,803.800293 
	C393.090057,804.737305 394.512512,805.401672 396.072510,806.378418 
	C397.785309,807.482239 399.360596,808.273682 401.080811,809.385864 
	C421.651459,821.473511 443.394348,829.716003 466.599945,833.966797 
	C474.379425,835.391846 482.208710,836.544922 490.015198,837.822388 
z"/>
<path fill="#000000" opacity="1.000000" stroke="none" 
	d="
M729.845093,642.034607 
	C729.896667,654.516235 729.988892,666.997803 729.992859,679.479431 
	C730.009583,732.081421 730.000000,784.683350 730.000000,837.988098 
	C665.256409,837.988098 600.588989,837.988098 535.645142,837.598389 
	C536.569580,837.077698 537.770325,836.946594 539.388000,836.892700 
	C542.539917,836.591431 545.275024,836.213074 548.421753,835.893921 
	C560.557190,833.246643 572.280884,830.540161 584.367126,827.768921 
	C592.319824,824.741943 600.070496,822.131836 607.472229,818.756287 
	C638.601196,804.559998 664.708679,783.853699 685.615906,756.806885 
	C699.193848,739.241577 709.799255,719.985535 717.164490,698.920532 
	C722.738220,682.979309 726.615051,666.709656 728.902710,649.584595 
	C729.262634,646.786804 729.553833,644.410706 729.845093,642.034607 
z"/>
<path fill="#267BA5" opacity="1.000000" stroke="none" 
	d="
M548.010071,835.834717 
	C545.275024,836.213074 542.539917,836.591431 539.380981,836.690613 
	C538.957031,836.411438 538.939209,836.007385 539.098999,835.710938 
	C546.514893,827.749329 554.180237,820.426758 560.942749,812.348389 
	C575.596558,794.843323 587.540283,775.492493 596.547668,754.543396 
	C601.493835,743.039673 604.890381,730.869629 609.144226,718.652710 
	C611.154602,710.198242 613.006287,702.091064 614.902405,693.548767 
	C614.999695,691.068970 615.052673,689.024292 615.466003,686.979736 
	C618.319397,684.723389 621.135498,682.733826 623.254150,680.168274 
	C640.019714,659.866699 656.703613,639.497131 673.309937,619.065002 
	C686.988770,602.234924 700.479675,585.251953 714.175659,568.436035 
	C716.404480,565.699463 719.265686,563.478027 721.834595,561.018494 
	C723.889221,570.070557 726.124146,579.086975 727.919861,588.190125 
	C728.775269,592.527039 728.795044,597.028687 729.519897,601.704712 
	C729.886902,604.999634 729.927368,608.045532 729.566284,611.586914 
	C724.319580,617.674011 719.363037,623.173584 714.650085,628.874512 
	C700.521301,645.965393 686.439209,663.095459 672.430664,680.285095 
	C658.530212,697.341980 644.765686,714.509644 630.896240,731.592041 
	C617.441101,748.164124 603.903381,764.669067 590.449280,781.242065 
	C579.500977,794.728455 568.542603,808.208313 557.759155,821.825989 
	C554.234131,826.277527 551.244568,831.153076 548.010071,835.834717 
z"/>
<path fill="#2685AE" opacity="1.000000" stroke="none" 
	d="
M548.421753,835.893921 
	C551.244568,831.153076 554.234131,826.277527 557.759155,821.825989 
	C568.542603,808.208313 579.500977,794.728455 590.449280,781.242065 
	C603.903381,764.669067 617.441101,748.164124 630.896240,731.592041 
	C644.765686,714.509644 658.530212,697.341980 672.430664,680.285095 
	C686.439209,663.095459 700.521301,645.965393 714.650085,628.874512 
	C719.363037,623.173584 724.319580,617.674011 729.498901,612.038696 
	C729.880432,621.698425 729.927734,631.401855 729.910095,641.569946 
	C729.553833,644.410706 729.262634,646.786804 728.569214,649.624695 
	C726.653442,651.350830 724.903992,652.419250 723.664734,653.911499 
	C715.839783,663.333374 708.091309,672.819702 700.387085,682.341064 
	C688.209717,697.390686 676.106018,712.499939 663.935425,727.555176 
	C652.909058,741.194763 641.853699,754.811035 630.777161,768.410034 
	C618.443542,783.552368 605.993286,798.600647 593.765015,813.827332 
	C590.210083,818.254028 587.241821,823.151855 584.004639,827.833740 
	C572.280884,830.540161 560.557190,833.246643 548.421753,835.893921 
z"/>
<path fill="#538CBC" opacity="1.000000" stroke="none" 
	d="
M296.935944,618.903564 
	C296.957642,617.559204 296.979370,616.214844 296.996704,614.199707 
	C297.005066,613.351257 297.017731,613.173584 297.399475,612.992310 
	C299.523651,612.148315 301.481445,611.576416 303.003021,610.427002 
	C322.384796,595.786255 341.726105,581.091492 361.030975,566.349304 
	C372.982910,557.222168 384.751801,547.851746 396.816620,538.877991 
	C401.350494,535.505737 406.488312,532.945435 411.494263,530.459290 
	C411.467316,544.925110 411.296844,558.946472 410.745789,572.980713 
	C408.231750,574.172485 405.921173,575.116455 403.994202,576.569214 
	C393.295776,584.634949 382.691406,592.825500 372.053192,600.971130 
	C354.191681,614.647522 336.394684,628.409668 318.420990,641.937073 
	C313.881165,645.353760 308.775604,648.018738 303.674011,650.759033 
	C302.179626,644.883606 300.880066,639.290833 299.721344,633.669067 
	C298.710419,628.764221 297.858276,623.826660 296.935944,618.903564 
z"/>
<path fill="#756CA6" opacity="1.000000" stroke="none" 
	d="
M338.616150,188.071838 
	C347.738129,191.087097 356.803253,193.217346 364.917297,197.257568 
	C372.088135,200.828156 378.199127,206.527206 384.728027,211.875183 
	C357.289856,233.315063 329.911133,254.178741 302.489868,274.986328 
	C300.863373,276.220551 298.895264,277.004608 297.053955,277.530609 
	C296.993805,255.352264 296.965820,233.641434 296.963440,211.530548 
	C298.736877,199.223557 306.520264,192.543976 316.913788,188.125015 
	C323.991089,188.089142 331.068420,188.053253 338.616150,188.071838 
z"/>
<path fill="#283871" opacity="1.000000" stroke="none" 
	d="
M296.573242,619.148926 
	C297.858276,623.826660 298.710419,628.764221 299.721344,633.669067 
	C300.880066,639.290833 302.179626,644.883606 303.712402,651.142212 
	C306.328156,658.530457 308.649506,665.265381 310.626282,672.038940 
	C308.163025,673.736145 306.044342,675.394714 303.693420,676.807434 
	C302.955811,675.365479 302.450348,674.169312 301.944885,672.973206 
	C301.944916,672.973206 302.020630,672.978577 301.909363,672.848267 
	C301.677979,672.460388 301.485626,672.279724 301.221069,672.175964 
	C300.129822,664.936890 298.956207,657.708862 297.978546,650.454468 
	C297.402954,646.183533 297.138397,641.870667 296.454895,637.313171 
	C296.187408,631.164551 296.198975,625.279358 296.573242,619.148926 
z"/>
<path fill="#42A5C4" opacity="1.000000" stroke="none" 
	d="
M538.939209,836.007385 
	C538.939209,836.007385 538.957031,836.411438 538.964111,836.613525 
	C537.770325,836.946594 536.569580,837.077698 535.182068,837.520020 
	C520.308228,837.869385 505.621155,837.907349 490.474609,837.883789 
	C482.208710,836.544922 474.379425,835.391846 466.599945,833.966797 
	C443.394348,829.716003 421.651459,821.473511 401.114746,809.349609 
	C401.003784,808.992737 401.070953,808.919556 401.443481,808.931519 
	C405.534760,810.637573 409.253448,812.331604 413.199188,814.291870 
	C415.974274,815.728027 418.448303,817.109924 421.083557,818.030273 
	C431.013397,821.497742 440.995758,824.815063 451.204468,828.447021 
	C452.667297,829.150757 453.852081,829.741577 455.106171,830.017456 
	C462.725708,831.693909 470.361053,833.298462 478.444794,834.954834 
	C481.914246,835.006653 484.929993,835.030640 488.250732,835.338867 
	C492.699310,835.762756 496.842926,835.902405 501.286865,836.329102 
	C506.060272,836.731079 510.533386,836.846008 515.473877,836.972595 
	C523.607239,836.658691 531.273193,836.333008 538.939209,836.007385 
z"/>
<path fill="#35A0C1" opacity="1.000000" stroke="none" 
	d="
M297.030365,612.995972 
	C297.017731,613.173584 297.005066,613.351257 296.973999,613.795410 
	C296.645325,612.526245 296.064484,610.990845 296.063721,609.455139 
	C296.030273,543.284180 296.048248,477.113190 296.298340,410.479370 
	C296.536682,410.016571 296.884552,410.017975 296.922028,410.483673 
	C296.999786,420.965851 297.040070,430.982300 297.048157,441.466522 
	C297.042358,467.281586 297.068756,492.628876 297.056793,518.445923 
	C297.034058,528.938904 297.049652,538.962280 297.038849,549.455078 
	C297.024384,559.278198 297.036346,568.631775 297.030640,578.454590 
	C297.018799,590.281250 297.024567,601.638611 297.030365,612.995972 
z"/>
<path fill="#42A5C4" opacity="1.000000" stroke="none" 
	d="
M296.884552,410.017975 
	C296.884552,410.017975 296.536682,410.016571 296.362732,410.015747 
	C296.126068,409.021454 296.008179,408.027954 296.008423,407.034485 
	C296.024689,342.344666 296.050507,277.654816 296.320557,212.472870 
	C296.565643,211.980728 296.937805,211.930618 296.937805,211.930618 
	C296.965820,233.641434 296.993805,255.352264 297.017822,277.998413 
	C297.038544,301.287933 297.063263,323.642090 297.053284,346.464478 
	C297.042542,360.955963 297.066498,374.979248 297.059937,389.469940 
	C296.981171,396.630920 296.932861,403.324432 296.884552,410.017975 
z"/>
<path fill="#000000" opacity="1.000000" stroke="none" 
	d="
M296.963440,211.530548 
	C296.937805,211.930618 296.565643,211.980728 296.380707,212.010376 
	C296.195770,204.170807 296.195770,196.301590 296.195770,188.008835 
	C302.896790,188.008835 309.444336,188.008835 316.452820,188.066925 
	C306.520264,192.543976 298.736877,199.223557 296.963440,211.530548 
z"/>
<path fill="#292763" opacity="1.000000" stroke="none" 
	d="
M411.126373,572.967896 
	C411.296844,558.946472 411.467316,544.925110 411.653931,530.009033 
	C411.712433,524.640137 411.857361,520.163940 411.773956,515.691956 
	C411.638855,508.445251 411.353943,501.201385 411.193481,493.551086 
	C411.281128,483.754608 411.307526,474.363312 411.478149,464.528931 
	C411.458282,454.045593 411.294220,444.005280 411.166595,433.606995 
	C411.498322,432.160126 411.793610,431.071289 412.088928,429.982452 
	C432.071594,420.065430 453.097748,413.577972 475.111725,409.869507 
	C492.406342,406.956085 509.775879,406.644836 527.174805,407.131866 
	C534.870178,407.347290 542.525818,408.977570 550.559937,410.391113 
	C547.046387,415.943726 543.314697,421.186005 539.272461,426.176788 
	C525.734680,442.891541 512.066833,459.500885 498.485199,476.180206 
	C485.741974,491.829834 472.959961,507.449402 460.397522,523.243286 
	C457.811737,526.494202 456.121338,530.457397 453.833801,534.364258 
	C448.870941,539.154419 443.859009,543.452881 439.359467,548.233643 
	C427.668365,560.655457 420.032135,575.357849 415.938354,591.879944 
	C414.451233,597.882019 413.312958,603.970581 411.951935,609.553162 
	C411.868347,603.289368 411.931061,597.490356 411.805908,591.695312 
	C411.671143,585.450867 411.360352,579.210205 411.126373,572.967896 
z"/>
<path fill="#827BB7" opacity="1.000000" stroke="none" 
	d="
M412.051910,429.516693 
	C411.793610,431.071289 411.498322,432.160126 410.805847,433.646423 
	C398.151459,443.307495 385.873749,452.544067 373.641449,461.840424 
	C349.803070,479.957214 326.006744,498.129517 302.122986,516.186218 
	C300.769592,517.209473 298.785614,517.398743 297.095154,517.976196 
	C297.068756,492.628876 297.042358,467.281586 297.407288,441.462036 
	C298.947540,440.415802 300.222321,440.007141 301.226410,439.242889 
	C314.926544,428.813965 328.594116,418.342285 342.259918,407.868347 
	C360.002441,394.269958 377.682983,380.589783 395.506744,367.098816 
	C400.746979,363.132416 406.382446,359.688202 411.836761,356.004639 
	C411.896149,380.353394 411.955505,404.702179 412.051910,429.516693 
z"/>
<path fill="#7970AA" opacity="1.000000" stroke="none" 
	d="
M297.087982,345.996277 
	C297.063263,323.642090 297.038544,301.287933 297.049988,278.465942 
	C298.895264,277.004608 300.863373,276.220551 302.489868,274.986328 
	C329.911133,254.178741 357.289856,233.315063 384.864746,212.179749 
	C399.030640,223.772034 406.288422,239.373749 410.018738,256.932434 
	C410.321136,258.355804 410.656616,259.772186 410.549500,261.602539 
	C408.130432,263.129303 405.975159,264.030334 404.174835,265.398407 
	C396.260040,271.412964 388.494720,277.623993 380.589386,283.651245 
	C358.718811,300.326019 336.842102,316.993256 314.883942,333.552277 
	C309.108398,337.907715 303.028259,341.859253 297.087982,345.996277 
z"/>
<path fill="#8178B4" opacity="1.000000" stroke="none" 
	d="
M411.907471,355.540344 
	C406.382446,359.688202 400.746979,363.132416 395.506744,367.098816 
	C377.682983,380.589783 360.002441,394.269958 342.259918,407.868347 
	C328.594116,418.342285 314.926544,428.813965 301.226410,439.242889 
	C300.222321,440.007141 298.947540,440.415802 297.439453,440.994324 
	C297.040070,430.982300 296.999786,420.965851 296.922028,410.483673 
	C296.932861,403.324432 296.981171,396.630920 297.418274,389.464111 
	C298.833496,388.528961 299.991150,388.240417 300.865692,387.578064 
	C308.388000,381.880951 315.841400,376.093018 323.348938,370.376282 
	C345.340240,353.630646 367.310333,336.856720 389.368469,320.199463 
	C396.732971,314.638153 404.338165,309.395538 411.833313,304.007233 
	C411.881592,321.030182 411.929871,338.053101 411.907471,355.540344 
z"/>
<path fill="#284C80" opacity="1.000000" stroke="none" 
	d="
M639.090515,444.944244 
	C646.038635,450.102448 653.284180,454.912659 659.847656,460.521057 
	C665.884094,465.679077 671.186584,471.695984 676.649780,477.783264 
	C672.403259,483.004456 668.217773,487.694214 664.255310,492.565369 
	C653.505249,505.780365 642.832092,519.058044 632.161987,532.337769 
	C621.904541,545.104004 611.689209,557.904053 601.287354,570.364075 
	C595.370972,558.602722 587.905090,548.451660 578.361450,539.892456 
	C574.957397,536.839539 571.383911,533.975525 568.199768,530.883057 
	C573.933960,524.068909 579.354553,517.395691 584.778748,510.725372 
	C597.202332,495.447601 609.579285,480.131500 622.074463,464.912537 
	C627.622742,458.154846 633.411133,451.594299 639.090515,444.944244 
z"/>
<path fill="#276D9A" opacity="1.000000" stroke="none" 
	d="
M721.888916,560.628540 
	C719.265686,563.478027 716.404480,565.699463 714.175659,568.436035 
	C700.479675,585.251953 686.988770,602.234924 673.309937,619.065002 
	C656.703613,639.497131 640.019714,659.866699 623.254150,680.168274 
	C621.135498,682.733826 618.319397,684.723389 615.587524,686.617798 
	C615.883850,682.167480 616.418945,678.079285 616.981079,673.548157 
	C617.305237,667.399597 617.602295,661.694031 617.932129,655.540283 
	C617.685547,647.725952 617.406067,640.359863 617.464844,632.954224 
	C621.067566,629.246155 624.462463,625.684509 627.573181,621.889954 
	C638.890625,608.084106 650.095276,594.185852 661.377319,580.350891 
	C669.319031,570.612000 677.388733,560.976624 685.269287,551.188843 
	C692.727783,541.925232 700.014282,532.523254 707.376343,523.182068 
	C712.231995,535.534241 717.087585,547.886414 721.888916,560.628540 
z"/>
<path fill="#7D74B0" opacity="1.000000" stroke="none" 
	d="
M411.905151,303.542908 
	C404.338165,309.395538 396.732971,314.638153 389.368469,320.199463 
	C367.310333,336.856720 345.340240,353.630646 323.348938,370.376282 
	C315.841400,376.093018 308.388000,381.880951 300.865692,387.578064 
	C299.991150,388.240417 298.833496,388.528961 297.448761,388.996643 
	C297.066498,374.979248 297.042542,360.955963 297.053284,346.464478 
	C303.028259,341.859253 309.108398,337.907715 314.883942,333.552277 
	C336.842102,316.993256 358.718811,300.326019 380.589386,283.651245 
	C388.494720,277.623993 396.260040,271.412964 404.174835,265.398407 
	C405.975159,264.030334 408.130432,263.129303 410.480316,262.009460 
	C411.217896,275.696625 411.597473,289.387604 411.905151,303.542908 
z"/>
<path fill="#283871" opacity="1.000000" stroke="none" 
	d="
M580.010559,416.143860 
	C590.130493,420.029816 600.250427,423.915771 610.644897,428.309631 
	C607.226379,433.452759 603.568054,438.116150 599.834290,442.718384 
	C582.580017,463.985992 565.240662,485.185059 548.101135,506.544586 
	C545.288879,510.049255 543.322754,514.232849 540.564026,518.063843 
	C527.928955,515.213867 515.662109,512.794067 503.014343,514.499878 
	C503.485870,513.120483 503.770020,511.949219 504.454926,511.101898 
	C512.147888,501.584290 519.921997,492.132294 527.636292,482.631805 
	C541.601379,465.433197 555.605347,448.265381 569.448303,430.968903 
	C573.233765,426.239075 576.503906,421.096802 580.010559,416.143860 
z"/>
<path fill="#292F69" opacity="1.000000" stroke="none" 
	d="
M579.616821,416.082855 
	C576.503906,421.096802 573.233765,426.239075 569.448303,430.968903 
	C555.605347,448.265381 541.601379,465.433197 527.636292,482.631805 
	C519.921997,492.132294 512.147888,501.584290 504.454926,511.101898 
	C503.770020,511.949219 503.485870,513.120483 502.587524,514.556213 
	C484.280640,516.733093 468.459442,523.675537 454.018219,534.092285 
	C456.121338,530.457397 457.811737,526.494202 460.397522,523.243286 
	C472.959961,507.449402 485.741974,491.829834 498.485199,476.180206 
	C512.066833,459.500885 525.734680,442.891541 539.272461,426.176788 
	C543.314697,421.186005 547.046387,415.943726 550.963013,410.476929 
	C560.411560,412.098724 569.817322,414.060303 579.616821,416.082855 
z"/>
<path fill="#276594" opacity="1.000000" stroke="none" 
	d="
M707.244873,522.887695 
	C700.014282,532.523254 692.727783,541.925232 685.269287,551.188843 
	C677.388733,560.976624 669.319031,570.612000 661.377319,580.350891 
	C650.095276,594.185852 638.890625,608.084106 627.573181,621.889954 
	C624.462463,625.684509 621.067566,629.246155 617.420837,632.516663 
	C616.335815,628.051575 615.633057,623.984558 614.923706,619.523193 
	C613.665283,612.423218 612.413513,605.717529 611.496704,598.962891 
	C622.823425,585.734131 633.898254,572.622559 644.783264,559.355164 
	C655.587830,546.185852 666.238037,532.889282 676.883362,519.590332 
	C682.352844,512.757446 687.664185,505.797791 693.046997,498.895386 
	C697.735779,506.794708 702.424561,514.694031 707.244873,522.887695 
z"/>
<path fill="#284379" opacity="1.000000" stroke="none" 
	d="
M540.965637,518.102722 
	C543.322754,514.232849 545.288879,510.049255 548.101135,506.544586 
	C565.240662,485.185059 582.580017,463.985992 599.834290,442.718384 
	C603.568054,438.116150 607.226379,433.452759 610.965271,428.482727 
	C620.265564,433.543549 629.519958,438.939178 638.932495,444.639526 
	C633.411133,451.594299 627.622742,458.154846 622.074463,464.912537 
	C609.579285,480.131500 597.202332,495.447601 584.778748,510.725372 
	C579.354553,517.395691 573.933960,524.068909 567.890076,530.739197 
	C558.500854,526.526001 549.733215,522.314331 540.965637,518.102722 
z"/>
<path fill="#275C8D" opacity="1.000000" stroke="none" 
	d="
M693.014587,498.545959 
	C687.664185,505.797791 682.352844,512.757446 676.883362,519.590332 
	C666.238037,532.889282 655.587830,546.185852 644.783264,559.355164 
	C633.898254,572.622559 622.823425,585.734131 611.430176,598.553955 
	C607.837524,589.025635 604.646484,579.857422 601.455444,570.689209 
	C611.689209,557.904053 621.904541,545.104004 632.161987,532.337769 
	C642.832092,519.058044 653.505249,505.780365 664.255310,492.565369 
	C668.217773,487.694214 672.403259,483.004456 676.800537,478.082825 
	C682.403442,484.687958 687.692810,491.442230 693.014587,498.545959 
z"/>
<path fill="#756CA6" opacity="1.000000" stroke="none" 
	d="
M350.762634,769.035095 
	C350.227966,768.600647 349.693268,768.166199 349.093262,767.110046 
	C348.327209,765.674194 347.626495,764.860168 346.925781,764.046082 
	C346.925781,764.046082 346.975830,763.993896 346.887573,763.782104 
	C346.511963,763.390137 346.224579,763.209900 345.937195,763.029663 
	C345.937225,763.029602 346.005341,763.016296 345.972961,762.700562 
	C345.274017,761.939819 344.607483,761.494751 343.940948,761.049683 
	C343.940948,761.049683 344.001099,761.002319 344.011719,760.669067 
	C343.324432,759.572754 342.626556,758.809692 341.928650,758.046570 
	C341.928650,758.046570 341.974548,757.993103 341.891541,757.777832 
	C341.518463,757.385254 341.228455,757.207886 340.938446,757.030518 
	C340.938446,757.030518 341.004822,757.021240 341.007141,756.680786 
	C340.315552,755.575439 339.621643,754.810608 338.927734,754.045776 
	C338.927734,754.045776 338.975739,753.993469 338.890259,753.779541 
	C338.516083,753.387268 338.227386,753.208801 337.938721,753.030396 
	C337.938721,753.030396 337.998810,753.001221 337.907471,752.778687 
	C337.524078,752.381348 337.231995,752.206665 336.939911,752.031921 
	C336.939911,752.031921 337.004089,752.018921 337.002930,751.722046 
	C336.644867,750.956848 336.287994,750.488647 335.931122,750.020386 
	C335.931122,750.020386 336.001923,750.010986 335.983826,749.702637 
	C335.286560,748.605164 334.607361,747.815979 333.928162,747.026794 
	C333.928162,747.026794 333.991089,746.997559 333.896362,746.782715 
	C333.513947,746.388428 333.226257,746.209045 332.938599,746.029602 
	C332.938599,746.029602 333.004944,746.017395 332.994446,745.724121 
	C332.632721,744.959961 332.281494,744.489014 331.930237,744.018066 
	C331.930237,744.018066 331.995544,744.000671 331.897461,743.785034 
	C331.512665,743.389404 331.225983,743.209412 330.939301,743.029419 
	C330.939301,743.029419 331.004822,743.017761 330.997070,742.722961 
	C330.636902,741.958435 330.284515,741.488647 329.932129,741.018921 
	C329.932129,741.018921 330.001556,741.009583 329.981506,740.701538 
	C329.284729,739.604614 328.608032,738.815613 327.931335,738.026672 
	C327.931335,738.026672 328.000000,738.004150 327.989227,737.717285 
	C327.629578,736.959167 327.280701,736.487915 326.931793,736.016602 
	C326.931793,736.016602 326.999756,736.005737 326.970734,735.681641 
	C326.296234,733.839233 325.650787,732.320984 325.314941,730.699219 
	C330.122864,725.368408 334.621124,720.141113 339.396240,715.091187 
	C344.523987,719.750366 349.068542,724.634705 354.299774,728.616943 
	C361.579865,734.158875 369.374237,739.025146 377.130493,744.459290 
	C386.873627,749.187012 396.434692,753.635986 405.992584,758.446472 
	C405.533752,759.826721 405.261993,760.989319 404.594513,761.842346 
	C396.401031,772.313721 388.149597,782.739868 379.555054,793.146362 
	C378.720001,793.154236 378.243103,793.193420 377.766205,793.232666 
	C377.766205,793.232666 377.814941,793.092957 377.755127,792.831482 
	C377.112640,792.394958 376.529968,792.219910 375.947266,792.044922 
	C375.947266,792.044922 376.006317,792.011108 375.959656,791.680603 
	C374.924896,790.916382 373.936798,790.482727 372.948700,790.049072 
	C372.948700,790.049072 372.998291,789.998840 372.980835,789.687134 
	C372.289642,788.931702 371.615906,788.487976 370.942169,788.044312 
	C370.942169,788.044312 371.006714,788.013184 370.969543,787.667053 
	C369.540741,786.555359 368.149109,785.789795 366.757507,785.024231 
	C366.225311,784.591431 365.693146,784.158569 365.071533,783.124023 
	C364.301666,782.029907 363.621185,781.537476 362.940704,781.045105 
	C362.940704,781.045105 362.986969,780.995239 362.900269,780.776978 
	C362.522064,780.382019 362.230560,780.205322 361.939087,780.028625 
	C361.939087,780.028625 361.998383,780.001099 361.906189,779.779663 
	C361.522308,779.381775 361.230652,779.205322 360.938995,779.028870 
	C360.938995,779.028870 360.998291,779.001099 360.906128,778.779663 
	C360.522278,778.381836 360.230591,778.205444 359.938904,778.029053 
	C359.938904,778.029053 359.998260,778.001099 359.905945,777.779785 
	C359.522034,777.382019 359.230408,777.205627 358.938782,777.029297 
	C358.938782,777.029297 358.998169,777.001038 358.905731,776.779907 
	C358.521759,776.382324 358.230255,776.205872 357.938721,776.029480 
	C357.938721,776.029480 357.998169,776.001038 357.905457,775.780029 
	C357.521393,775.382629 357.230011,775.206177 356.938660,775.029663 
	C356.938660,775.029663 356.998169,775.001038 356.905273,774.780212 
	C356.521088,774.382874 356.229828,774.206299 355.938568,774.029785 
	C355.938568,774.029785 355.998230,774.001038 355.905090,773.780396 
	C355.520752,773.383118 355.229584,773.206482 354.938385,773.029846 
	C354.938385,773.029846 354.998199,773.001038 354.904785,772.780579 
	C354.520233,772.383362 354.229156,772.206604 353.938080,772.029785 
	C353.938080,772.029785 353.998108,772.001038 353.904388,771.780823 
	C353.519653,771.383667 353.228668,771.206665 352.937653,771.029724 
	C352.937653,771.029724 353.004883,771.013367 352.965820,770.683411 
	C352.205383,769.914001 351.484009,769.474548 350.762634,769.035095 
z"/>
<path fill="#284C80" opacity="1.000000" stroke="none" 
	d="
M339.119415,714.913879 
	C334.621124,720.141113 330.122864,725.368408 325.177704,730.451294 
	C324.135681,729.877258 323.540497,729.447571 322.945312,729.017883 
	C322.945312,729.017883 322.999969,729.000000 323.045288,728.657715 
	C322.376251,727.553589 321.661896,726.791809 320.947571,726.029968 
	C320.947571,726.029968 320.997406,725.998291 321.066650,725.692017 
	C320.738831,724.928894 320.341736,724.472107 319.944641,724.015259 
	C319.944641,724.015259 320.000732,724.002441 320.067993,723.694031 
	C319.738373,722.928833 319.341492,722.472046 318.944641,722.015259 
	C318.944641,722.015259 319.000763,722.002563 319.068909,721.694702 
	C318.739624,720.929504 318.342255,720.472107 317.944885,720.014709 
	C317.944885,720.014709 318.000763,720.002441 318.066589,719.694397 
	C317.736572,718.929016 317.340790,718.471741 316.945007,718.014404 
	C316.945007,718.014404 317.000580,718.002075 317.087036,717.674438 
	C316.763184,716.562622 316.352844,715.778381 315.942505,714.994141 
	C315.942505,714.994141 316.004150,714.990234 315.921448,714.828247 
	C315.700409,714.406067 315.491302,714.229614 315.211426,714.137085 
	C313.492950,709.935791 311.774506,705.734436 310.306335,701.006836 
	C310.617371,700.058838 310.678101,699.637085 311.054993,699.049927 
	C314.245483,695.620789 317.119843,692.357056 320.201416,689.095581 
	C320.408661,689.097839 320.822937,689.110168 320.913696,689.445557 
	C326.314240,696.905884 331.624054,704.030762 337.077728,711.438110 
	C337.854218,712.784973 338.486816,713.849426 339.119415,714.913879 
z"/>
<path fill="#284379" opacity="1.000000" stroke="none" 
	d="
M319.994202,689.093323 
	C317.119843,692.357056 314.245483,695.620789 310.796112,699.007324 
	C309.868988,699.104675 309.516876,699.079163 309.164764,699.053650 
	C309.164764,699.053650 308.969482,698.696838 309.056641,698.116699 
	C308.745483,696.688599 308.347168,695.840698 307.948853,694.992737 
	C307.948853,694.992737 308.003143,694.999695 308.066467,694.670898 
	C307.736023,693.559753 307.342194,692.777283 306.948395,691.994873 
	C306.948395,691.994873 307.002777,691.998596 307.061401,691.628967 
	C306.397095,689.168579 305.674194,687.077759 304.951263,684.987000 
	C304.951263,684.987000 305.007111,685.000244 305.044556,684.614929 
	C304.696564,681.837524 304.311096,679.445374 303.925629,677.053284 
	C306.044342,675.394714 308.163025,673.736145 310.900055,672.248779 
	C314.343658,677.977783 317.168915,683.535583 319.994202,689.093323 
z"/>
<path fill="#42A5C4" opacity="1.000000" stroke="none" 
	d="
M303.693420,676.807434 
	C304.311096,679.445374 304.696564,681.837524 305.031494,684.640442 
	C304.003784,681.306580 303.026672,677.561890 301.997192,673.395203 
	C302.450348,674.169312 302.955811,675.365479 303.693420,676.807434 
z"/>
<path fill="#42A5C4" opacity="1.000000" stroke="none" 
	d="
M322.973083,729.377869 
	C323.540497,729.447571 324.135681,729.877258 324.868103,730.554810 
	C325.650787,732.320984 326.296234,733.839233 326.949036,735.708374 
	C325.637848,733.952087 324.319336,731.844971 322.973083,729.377869 
z"/>
<path fill="#42A5C4" opacity="1.000000" stroke="none" 
	d="
M304.986572,685.382202 
	C305.674194,687.077759 306.397095,689.168579 307.047943,691.652710 
	C306.324524,689.956482 305.673187,687.866943 304.986572,685.382202 
z"/>
<path fill="#42A5C4" opacity="1.000000" stroke="none" 
	d="
M400.969849,809.028931 
	C399.360596,808.273682 397.785309,807.482239 396.106323,806.342590 
	C396.002594,805.994385 396.069458,805.921936 396.428650,805.932312 
	C398.215546,806.934998 399.643250,807.927307 401.070953,808.919556 
	C401.070953,808.919556 401.003784,808.992737 400.969849,809.028931 
z"/>
<path fill="#42A5C4" opacity="1.000000" stroke="none" 
	d="
M395.968811,806.030273 
	C394.512512,805.401672 393.090057,804.737305 391.669922,803.671143 
	C391.798706,803.156921 391.925201,803.044495 392.387573,802.989380 
	C393.838745,804.005127 394.954102,804.963501 396.069458,805.921936 
	C396.069458,805.921936 396.002594,805.994385 395.968811,806.030273 
z"/>
<path fill="#42A5C4" opacity="1.000000" stroke="none" 
	d="
M366.933655,785.318420 
	C368.149109,785.789795 369.540741,786.555359 370.944092,787.693604 
	C369.673798,787.248352 368.391815,786.430481 366.933655,785.318420 
z"/>
<path fill="#42A5C4" opacity="1.000000" stroke="none" 
	d="
M377.680206,793.566772 
	C378.243103,793.193420 378.720001,793.154236 379.699097,793.409912 
	C380.494415,794.441528 380.787567,795.178162 381.043701,795.955017 
	C381.006714,795.995239 380.934479,796.077271 380.934479,796.077271 
	C379.821045,795.351807 378.707642,794.626282 377.680206,793.566772 
z"/>
<path fill="#42A5C4" opacity="1.000000" stroke="none" 
	d="
M341.959656,758.373047 
	C342.626556,758.809692 343.324432,759.572754 343.983643,760.696289 
	C343.293549,760.270996 342.642120,759.485291 341.959656,758.373047 
z"/>
<path fill="#42A5C4" opacity="1.000000" stroke="none" 
	d="
M391.453644,803.398560 
	C390.362640,803.029053 389.490265,802.530518 388.644745,801.650940 
	C388.797913,801.157654 388.924194,801.045288 389.362366,800.982056 
	C390.466766,801.664795 391.259247,802.298401 392.051727,802.932007 
	C391.925201,803.044495 391.798706,803.156921 391.453644,803.398560 
z"/>
<path fill="#42A5C4" opacity="1.000000" stroke="none" 
	d="
M388.453186,801.398682 
	C387.357391,801.025452 386.480042,800.523438 385.633423,799.643921 
	C385.791290,799.156006 385.918427,799.045715 386.358185,798.983398 
	C387.464020,799.665161 388.257263,800.299011 389.050507,800.932861 
	C388.924194,801.045288 388.797913,801.157654 388.453186,801.398682 
z"/>
<path fill="#42A5C4" opacity="1.000000" stroke="none" 
	d="
M383.938721,798.072266 
	C383.020355,797.605957 382.101959,797.139648 381.059021,796.375305 
	C380.934479,796.077271 381.006714,795.995239 381.386108,795.968384 
	C382.530823,796.605286 383.296112,797.269165 384.030579,797.967651 
	C383.999756,798.002380 383.938721,798.072266 383.938721,798.072266 
z"/>
<path fill="#42A5C4" opacity="1.000000" stroke="none" 
	d="
M373.063110,790.355469 
	C373.936798,790.482727 374.924896,790.916382 375.936310,791.707031 
	C375.032257,791.596558 374.104889,791.129211 373.063110,790.355469 
z"/>
<path fill="#42A5C4" opacity="1.000000" stroke="none" 
	d="
M346.958771,764.380249 
	C347.626495,764.860168 348.327209,765.674194 348.997131,766.865234 
	C348.308136,766.399597 347.649963,765.557068 346.958771,764.380249 
z"/>
<path fill="#42A5C4" opacity="1.000000" stroke="none" 
	d="
M338.958984,754.372498 
	C339.621643,754.810608 340.315552,755.575439 340.977783,756.699158 
	C340.294159,756.271790 339.642212,755.485474 338.958984,754.372498 
z"/>
<path fill="#42A5C4" opacity="1.000000" stroke="none" 
	d="
M320.973694,726.358765 
	C321.661896,726.791809 322.376251,727.553589 323.029663,728.681885 
	C322.312408,728.261414 321.656128,727.474487 320.973694,726.358765 
z"/>
<path fill="#42A5C4" opacity="1.000000" stroke="none" 
	d="
M327.962402,738.355103 
	C328.608032,738.815613 329.284729,739.604614 329.956726,740.726440 
	C329.299164,740.267334 328.646332,739.475403 327.962402,738.355103 
z"/>
<path fill="#42A5C4" opacity="1.000000" stroke="none" 
	d="
M333.959808,747.355225 
	C334.607361,747.815979 335.286560,748.605164 335.957886,749.727234 
	C335.297119,749.267944 334.644287,748.475830 333.959808,747.355225 
z"/>
<path fill="#42A5C4" opacity="1.000000" stroke="none" 
	d="
M363.040375,781.334717 
	C363.621185,781.537476 364.301666,782.029907 364.977081,782.879639 
	C364.361359,782.699463 363.750702,782.161926 363.040375,781.334717 
z"/>
<path fill="#42A5C4" opacity="1.000000" stroke="none" 
	d="
M371.036011,788.326294 
	C371.615906,788.487976 372.289642,788.931702 372.959625,789.714355 
	C372.347198,789.571655 371.738525,789.089966 371.036011,788.326294 
z"/>
<path fill="#42A5C4" opacity="1.000000" stroke="none" 
	d="
M307.978058,695.359009 
	C308.347168,695.840698 308.745483,696.688599 309.068176,697.913635 
	C308.664124,697.435547 308.335693,696.580383 307.978058,695.359009 
z"/>
<path fill="#42A5C4" opacity="1.000000" stroke="none" 
	d="
M350.915924,769.301331 
	C351.484009,769.474548 352.205383,769.914001 352.940125,770.707031 
	C352.325378,770.562927 351.697296,770.065247 350.915924,769.301331 
z"/>
<path fill="#42A5C4" opacity="1.000000" stroke="none" 
	d="
M315.968842,715.345581 
	C316.352844,715.778381 316.763184,716.562622 317.067139,717.694885 
	C316.638916,717.260986 316.317017,716.479004 315.968842,715.345581 
z"/>
<path fill="#42A5C4" opacity="1.000000" stroke="none" 
	d="
M344.033875,761.331909 
	C344.607483,761.494751 345.274017,761.939819 345.946106,762.723206 
	C345.343384,762.579102 344.735077,762.096619 344.033875,761.331909 
z"/>
<path fill="#42A5C4" opacity="1.000000" stroke="none" 
	d="
M309.235229,699.305786 
	C309.516876,699.079163 309.868988,699.104675 310.479980,699.172791 
	C310.678101,699.637085 310.617371,700.058838 310.399902,700.633057 
	C309.930664,700.376404 309.618195,699.967224 309.235229,699.305786 
z"/>
<path fill="#42A5C4" opacity="1.000000" stroke="none" 
	d="
M306.977722,692.346069 
	C307.342194,692.777283 307.736023,693.559753 308.051758,694.693970 
	C307.651459,694.263000 307.329254,693.480164 306.977722,692.346069 
z"/>
<path fill="#42A5C4" opacity="1.000000" stroke="none" 
	d="
M319.970612,724.330322 
	C320.341736,724.472107 320.738831,724.928894 321.048828,725.715332 
	C320.640045,725.578491 320.318298,725.111938 319.970612,724.330322 
z"/>
<path fill="#42A5C4" opacity="1.000000" stroke="none" 
	d="
M316.971405,718.329529 
	C317.340790,718.471741 317.736572,718.929016 318.047302,719.715576 
	C317.640747,719.578125 317.319275,719.111389 316.971405,718.329529 
z"/>
<path fill="#42A5C4" opacity="1.000000" stroke="none" 
	d="
M376.086304,792.373291 
	C376.529968,792.219910 377.112640,792.394958 377.821533,792.864075 
	C377.373627,793.005981 376.799469,792.853821 376.086304,792.373291 
z"/>
<path fill="#42A5C4" opacity="1.000000" stroke="none" 
	d="
M317.971008,720.329834 
	C318.342255,720.472107 318.739624,720.929504 319.049316,721.715881 
	C318.640137,721.578186 318.318634,721.111572 317.971008,720.329834 
z"/>
<path fill="#42A5C4" opacity="1.000000" stroke="none" 
	d="
M385.443054,799.388306 
	C384.844818,799.190491 384.467590,798.870667 384.014526,798.311523 
	C383.938721,798.072266 383.999756,798.002380 384.324738,797.989258 
	C385.115021,798.295898 385.580292,798.615662 386.045593,798.935486 
	C385.918427,799.045715 385.791290,799.156006 385.443054,799.388306 
z"/>
<path fill="#42A5C4" opacity="1.000000" stroke="none" 
	d="
M318.970612,722.330444 
	C319.341492,722.472046 319.738373,722.928833 320.048523,723.715271 
	C319.640076,723.578430 319.318329,723.112000 318.970612,722.330444 
z"/>
<path fill="#42A5C4" opacity="1.000000" stroke="none" 
	d="
M335.960449,750.334290 
	C336.287994,750.488647 336.644867,750.956848 336.973877,751.740295 
	C336.627228,751.586365 336.308502,751.117310 335.960449,750.334290 
z"/>
<path fill="#42A5C4" opacity="1.000000" stroke="none" 
	d="
M331.959991,744.332581 
	C332.281494,744.489014 332.632721,744.959961 332.966248,745.744141 
	C332.628906,745.587219 332.309326,745.117188 331.959991,744.332581 
z"/>
<path fill="#42A5C4" opacity="1.000000" stroke="none" 
	d="
M329.961609,741.333130 
	C330.284515,741.488647 330.636902,741.958435 330.968811,742.742310 
	C330.629272,742.586792 330.310211,742.117065 329.961609,741.333130 
z"/>
<path fill="#42A5C4" opacity="1.000000" stroke="none" 
	d="
M326.961914,736.331177 
	C327.280701,736.487915 327.629578,736.959167 327.964661,737.743896 
	C327.631256,737.586731 327.311646,737.116211 326.961914,736.331177 
z"/>
<path fill="#42A5C4" opacity="1.000000" stroke="none" 
	d="
M315.236145,714.358887 
	C315.491302,714.229614 315.700409,714.406067 315.920715,714.859131 
	C315.697815,714.985657 315.450531,714.828552 315.236145,714.358887 
z"/>
<path fill="#42A5C4" opacity="1.000000" stroke="none" 
	d="
M301.277283,672.378479 
	C301.485626,672.279724 301.677979,672.460388 301.911377,672.886169 
	C301.762939,672.942383 301.532532,672.784607 301.277283,672.378479 
z"/>
<path fill="#42A5C4" opacity="1.000000" stroke="none" 
	d="
M362.009979,780.285645 
	C362.230560,780.205322 362.522064,780.382019 362.892822,780.809814 
	C362.675018,780.888184 362.377930,780.715393 362.009979,780.285645 
z"/>
<path fill="#42A5C4" opacity="1.000000" stroke="none" 
	d="
M361.009644,779.286011 
	C361.230652,779.205322 361.522308,779.381775 361.892914,779.809509 
	C361.674622,779.888306 361.377441,779.715698 361.009644,779.286011 
z"/>
<path fill="#42A5C4" opacity="1.000000" stroke="none" 
	d="
M360.009460,778.286194 
	C360.230591,778.205444 360.522278,778.381836 360.892853,778.809570 
	C360.674469,778.888428 360.377258,778.715881 360.009460,778.286194 
z"/>
<path fill="#42A5C4" opacity="1.000000" stroke="none" 
	d="
M359.009338,777.286377 
	C359.230408,777.205627 359.522034,777.382019 359.892578,777.809692 
	C359.674316,777.888489 359.377106,777.716003 359.009338,777.286377 
z"/>
<path fill="#42A5C4" opacity="1.000000" stroke="none" 
	d="
M358.009277,776.286560 
	C358.230255,776.205872 358.521759,776.382324 358.892334,776.809937 
	C358.674164,776.888611 358.376984,776.716125 358.009277,776.286560 
z"/>
<path fill="#42A5C4" opacity="1.000000" stroke="none" 
	d="
M357.009155,775.286743 
	C357.230011,775.206177 357.521393,775.382629 357.891968,775.810120 
	C357.673981,775.888733 357.376831,775.716248 357.009155,775.286743 
z"/>
<path fill="#42A5C4" opacity="1.000000" stroke="none" 
	d="
M356.009033,774.286865 
	C356.229828,774.206299 356.521088,774.382874 356.891663,774.810303 
	C356.673798,774.888794 356.376648,774.716370 356.009033,774.286865 
z"/>
<path fill="#42A5C4" opacity="1.000000" stroke="none" 
	d="
M355.008850,773.286926 
	C355.229584,773.206482 355.520752,773.383118 355.891357,773.810547 
	C355.673615,773.888916 355.376434,773.716492 355.008850,773.286926 
z"/>
<path fill="#42A5C4" opacity="1.000000" stroke="none" 
	d="
M354.008606,772.286926 
	C354.229156,772.206604 354.520233,772.383362 354.891052,772.810791 
	C354.673553,772.889038 354.376343,772.716553 354.008606,772.286926 
z"/>
<path fill="#42A5C4" opacity="1.000000" stroke="none" 
	d="
M353.008392,771.286804 
	C353.228668,771.206665 353.519653,771.383667 353.890747,771.811157 
	C353.673584,771.889160 353.376343,771.716492 353.008392,771.286804 
z"/>
<path fill="#42A5C4" opacity="1.000000" stroke="none" 
	d="
M346.007996,763.287292 
	C346.224579,763.209900 346.511963,763.390137 346.885590,763.818237 
	C346.674164,763.892334 346.376495,763.718628 346.007996,763.287292 
z"/>
<path fill="#42A5C4" opacity="1.000000" stroke="none" 
	d="
M341.008301,757.288086 
	C341.228455,757.207886 341.518463,757.385254 341.889648,757.812927 
	C341.673248,757.890686 341.375671,757.718140 341.008301,757.288086 
z"/>
<path fill="#42A5C4" opacity="1.000000" stroke="none" 
	d="
M338.008667,753.288086 
	C338.227386,753.208801 338.516083,753.387268 338.888153,753.814941 
	C338.673920,753.891357 338.376282,753.718506 338.008667,753.288086 
z"/>
<path fill="#42A5C4" opacity="1.000000" stroke="none" 
	d="
M337.009399,752.288879 
	C337.231995,752.206665 337.524078,752.381348 337.892822,752.808716 
	C337.672607,752.889465 337.375732,752.717651 337.009399,752.288879 
z"/>
<path fill="#42A5C4" opacity="1.000000" stroke="none" 
	d="
M333.008881,746.287354 
	C333.226257,746.209045 333.513947,746.388428 333.887146,746.816162 
	C333.674835,746.891357 333.376984,746.718262 333.008881,746.287354 
z"/>
<path fill="#42A5C4" opacity="1.000000" stroke="none" 
	d="
M331.009399,743.287354 
	C331.225983,743.209412 331.512665,743.389404 331.886353,743.816895 
	C331.675385,743.891357 331.377441,743.718262 331.009399,743.287354 
z"/>
<path fill="#268AB2" opacity="1.000000" stroke="none" 
	d="
M584.367126,827.768921 
	C587.241821,823.151855 590.210083,818.254028 593.765015,813.827332 
	C605.993286,798.600647 618.443542,783.552368 630.777161,768.410034 
	C641.853699,754.811035 652.909058,741.194763 663.935425,727.555176 
	C676.106018,712.499939 688.209717,697.390686 700.387085,682.341064 
	C708.091309,672.819702 715.839783,663.333374 723.664734,653.911499 
	C724.903992,652.419250 726.653442,651.350830 728.500488,650.046387 
	C726.615051,666.709656 722.738220,682.979309 717.164490,698.920532 
	C709.799255,719.985535 699.193848,739.241577 685.615906,756.806885 
	C664.708679,783.853699 638.601196,804.559998 607.472229,818.756287 
	C600.070496,822.131836 592.319824,824.741943 584.367126,827.768921 
z"/>
<path fill="#4590BD" opacity="1.000000" stroke="none" 
	d="
M539.098999,835.710938 
	C531.273193,836.333008 523.607239,836.658691 515.509277,836.627136 
	C516.249329,834.480896 517.294678,832.592102 518.613159,830.918518 
	C530.271118,816.121338 542.007446,801.385986 553.662231,786.586304 
	C569.199280,766.856812 584.623413,747.037842 600.253296,727.382385 
	C602.742004,724.252625 606.054138,721.777649 608.985596,719.000000 
	C604.890381,730.869629 601.493835,743.039673 596.547668,754.543396 
	C587.540283,775.492493 575.596558,794.843323 560.942749,812.348389 
	C554.180237,820.426758 546.514893,827.749329 539.098999,835.710938 
z"/>
<path fill="#538CBC" opacity="1.000000" stroke="none" 
	d="
M609.144226,718.652710 
	C606.054138,721.777649 602.742004,724.252625 600.253296,727.382385 
	C584.623413,747.037842 569.199280,766.856812 553.662231,786.586304 
	C542.007446,801.385986 530.271118,816.121338 518.613159,830.918518 
	C517.294678,832.592102 516.249329,834.480896 515.041931,836.615417 
	C510.533386,836.846008 506.060272,836.731079 501.324829,835.975830 
	C501.360870,834.752380 501.571228,834.099304 501.970520,833.596191 
	C515.037415,817.129639 528.191040,800.731506 541.189209,784.210999 
	C562.782166,756.766479 584.219543,729.199402 605.893250,701.819092 
	C608.315308,698.759216 611.843079,696.574463 614.858032,693.983887 
	C613.006287,702.091064 611.154602,710.198242 609.144226,718.652710 
z"/>
<path fill="#5D89BC" opacity="1.000000" stroke="none" 
	d="
M614.902466,693.548828 
	C611.843079,696.574463 608.315308,698.759216 605.893250,701.819092 
	C584.219543,729.199402 562.782166,756.766479 541.189209,784.210999 
	C528.191040,800.731506 515.037415,817.129639 501.970520,833.596191 
	C501.571228,834.099304 501.360870,834.752380 501.024506,835.688782 
	C496.842926,835.902405 492.699310,835.762756 488.527161,835.141113 
	C496.235901,824.947144 504.019196,815.271484 511.700500,805.515503 
	C525.932617,787.439331 540.071838,769.289978 554.310791,751.219116 
	C571.623108,729.247864 588.949280,707.287048 606.390747,685.418457 
	C609.616577,681.373840 613.418213,677.788452 616.954102,673.991089 
	C616.418945,678.079285 615.883850,682.167480 615.227173,686.617615 
	C615.052673,689.024292 614.999695,691.068970 614.902466,693.548828 
z"/>
<path fill="#4590BD" opacity="1.000000" stroke="none" 
	d="
M320.201416,689.095581 
	C317.168915,683.535583 314.343658,677.977783 311.244629,672.210205 
	C308.649506,665.265381 306.328156,658.530457 303.968384,651.412354 
	C308.775604,648.018738 313.881165,645.353760 318.420990,641.937073 
	C336.394684,628.409668 354.191681,614.647522 372.053192,600.971130 
	C382.691406,592.825500 393.295776,584.634949 403.994202,576.569214 
	C405.921173,575.116455 408.231750,574.172485 410.745789,572.980713 
	C411.360352,579.210205 411.671143,585.450867 411.805908,591.695312 
	C411.931061,597.490356 411.868347,603.289368 411.873016,609.780884 
	C411.857666,610.475037 411.746979,610.944336 411.603485,611.056152 
	C411.569427,611.462769 411.678894,611.757446 411.831604,612.367798 
	C411.856049,613.107117 411.837158,613.530884 411.678680,614.065674 
	C411.647797,614.462646 411.756500,614.748535 411.914215,615.458313 
	C411.919769,617.585876 411.876312,619.289551 411.490906,621.036926 
	C401.434082,628.219482 391.636597,635.249084 382.021484,642.519897 
	C361.571777,657.983582 341.216766,673.572571 320.822937,689.110229 
	C320.822937,689.110168 320.408661,689.097839 320.201416,689.095581 
z"/>
<path fill="#5D89BC" opacity="1.000000" stroke="none" 
	d="
M411.132263,493.956299 
	C411.353943,501.201385 411.638855,508.445251 411.773956,515.691956 
	C411.857361,520.163940 411.712433,524.640137 411.510376,529.564697 
	C406.488312,532.945435 401.350494,535.505737 396.816620,538.877991 
	C384.751801,547.851746 372.982910,557.222168 361.030975,566.349304 
	C341.726105,581.091492 322.384796,595.786255 303.003021,610.427002 
	C301.481445,611.576416 299.523651,612.148315 297.399475,612.992310 
	C297.024567,601.638611 297.018799,590.281250 297.375519,578.422607 
	C308.566742,569.764343 319.421204,561.641418 330.218750,553.443481 
	C352.364502,536.629639 374.425690,519.703613 396.652405,502.997589 
	C401.184113,499.591461 406.290680,496.950165 411.132263,493.956299 
z"/>
<path fill="#827BB7" opacity="1.000000" stroke="none" 
	d="
M450.958466,828.188538 
	C440.995758,824.815063 431.013397,821.497742 421.083557,818.030273 
	C418.448303,817.109924 415.974274,815.728027 413.242615,813.936646 
	C413.642975,812.129700 414.036285,810.792297 414.840485,809.781982 
	C423.093597,799.413757 431.516998,789.179382 439.661377,778.727356 
	C442.749054,774.764832 445.236511,770.334656 448.465668,766.085449 
	C466.904236,766.607544 484.664307,765.297180 501.982361,760.435913 
	C501.467072,762.183350 501.249176,763.792664 500.388672,764.904846 
	C494.017120,773.140198 487.477905,781.245483 481.067627,789.451294 
	C470.999786,802.339111 460.991821,815.273743 450.958466,828.188538 
z"/>
<path fill="#7383BB" opacity="1.000000" stroke="none" 
	d="
M451.204468,828.447021 
	C460.991821,815.273743 470.999786,802.339111 481.067627,789.451294 
	C487.477905,781.245483 494.017120,773.140198 500.388672,764.904846 
	C501.249176,763.792664 501.467072,762.183350 502.355591,760.361450 
	C505.079315,759.137085 507.426544,758.345032 509.781067,757.575439 
	C524.993591,752.602966 538.591614,744.476440 551.993408,736.345093 
	C550.909119,738.720154 550.062927,740.901367 548.705811,742.696289 
	C544.715698,747.973572 540.516296,753.092346 536.410400,758.282410 
	C518.967651,780.331360 501.475372,802.341553 484.149353,824.481812 
	C481.679871,827.637512 480.023712,831.429565 477.991119,834.927124 
	C470.361053,833.298462 462.725708,831.693909 455.106171,830.017456 
	C453.852081,829.741577 452.667297,829.150757 451.204468,828.447021 
z"/>
<path fill="#6886BB" opacity="1.000000" stroke="none" 
	d="
M478.444794,834.954834 
	C480.023712,831.429565 481.679871,827.637512 484.149353,824.481812 
	C501.475372,802.341553 518.967651,780.331360 536.410400,758.282410 
	C540.516296,753.092346 544.715698,747.973572 548.705811,742.696289 
	C550.062927,740.901367 550.909119,738.720154 552.142212,736.045532 
	C561.716431,726.552734 571.363098,717.953369 580.436707,708.786804 
	C583.656860,705.533630 585.482849,700.900391 587.953491,696.937012 
	C587.961670,696.976868 587.884277,696.951477 588.249390,696.926514 
	C589.058105,695.900085 589.501709,694.898499 589.958984,693.933044 
	C589.972656,693.969177 589.895813,693.977295 590.147827,693.879395 
	C590.592102,693.485291 590.784302,693.189209 590.979858,692.937256 
	C590.983093,692.981323 590.894653,692.980042 591.151428,692.868286 
	C591.598022,692.442505 591.787842,692.128418 591.986816,691.463806 
	C593.174866,689.388489 594.558838,687.768066 595.497253,685.921143 
	C599.711853,677.626587 603.799805,669.267700 608.236084,661.070312 
	C609.891296,660.772156 611.374023,660.555298 612.566650,659.848633 
	C614.446655,658.734802 616.131714,657.291992 617.899292,655.988403 
	C617.602295,661.694031 617.305237,667.399597 616.981140,673.548157 
	C613.418213,677.788452 609.616577,681.373840 606.390747,685.418457 
	C588.949280,707.287048 571.623108,729.247864 554.310791,751.219116 
	C540.071838,769.289978 525.932617,787.439331 511.700500,805.515503 
	C504.019196,815.271484 496.235901,824.947144 488.222229,834.856812 
	C484.929993,835.030640 481.914246,835.006653 478.444794,834.954834 
z"/>
<path fill="#7D74B0" opacity="1.000000" stroke="none" 
	d="
M447.997559,766.117676 
	C445.236511,770.334656 442.749054,774.764832 439.661377,778.727356 
	C431.516998,789.179382 423.093597,799.413757 414.840485,809.781982 
	C414.036285,810.792297 413.642975,812.129700 413.015564,813.670532 
	C409.253448,812.331604 405.534760,810.637573 401.443481,808.931519 
	C399.643250,807.927307 398.215546,806.934998 396.428650,805.932312 
	C394.954102,804.963501 393.838745,804.005127 392.387573,802.989380 
	C391.259247,802.298401 390.466766,801.664795 389.362366,800.982056 
	C388.257263,800.299011 387.464020,799.665161 386.358185,798.983398 
	C385.580292,798.615662 385.115021,798.295898 384.355591,797.954529 
	C383.296112,797.269165 382.530823,796.605286 381.423096,795.928101 
	C380.787567,795.178162 380.494415,794.441528 380.057220,793.441284 
	C388.149597,782.739868 396.401031,772.313721 404.594513,761.842346 
	C405.261993,760.989319 405.533752,759.826721 406.370331,758.463379 
	C411.500153,759.394653 416.248993,760.670471 421.350677,762.119263 
	C430.468201,763.567383 439.232880,764.842529 447.997559,766.117676 
z"/>
<path fill="#7383BB" opacity="1.000000" stroke="none" 
	d="
M297.056793,518.445923 
	C298.785614,517.398743 300.769592,517.209473 302.122986,516.186218 
	C326.006744,498.129517 349.803070,479.957214 373.641449,461.840424 
	C385.873749,452.544067 398.151459,443.307495 410.769409,434.004456 
	C411.294220,444.005280 411.458282,454.045593 411.172485,464.552429 
	C405.526154,468.772614 400.249329,472.420502 395.146545,476.297485 
	C366.988373,497.691406 338.912598,519.194031 310.699402,540.515015 
	C306.448578,543.727417 301.624298,546.180969 297.065277,548.985596 
	C297.049652,538.962280 297.034058,528.938904 297.056793,518.445923 
z"/>
<path fill="#6886BB" opacity="1.000000" stroke="none" 
	d="
M297.038849,549.455078 
	C301.624298,546.180969 306.448578,543.727417 310.699402,540.515015 
	C338.912598,519.194031 366.988373,497.691406 395.146545,476.297485 
	C400.249329,472.420502 405.526154,468.772614 411.028290,464.995483 
	C411.307526,474.363312 411.281128,483.754608 411.193481,493.551086 
	C406.290680,496.950165 401.184113,499.591461 396.652405,502.997589 
	C374.425690,519.703613 352.364502,536.629639 330.218750,553.443481 
	C319.421204,561.641418 308.566742,569.764343 297.393188,577.953308 
	C297.036346,568.631775 297.024384,559.278198 297.038849,549.455078 
z"/>
<path fill="#000000" opacity="1.000000" stroke="none" 
	d="
M607.933472,660.932007 
	C603.799805,669.267700 599.711853,677.626587 595.497253,685.921143 
	C594.558838,687.768066 593.174866,689.388489 591.732666,691.582275 
	C591.277710,692.360901 591.086182,692.670471 590.894653,692.980042 
	C590.894653,692.980042 590.983093,692.981323 590.720032,693.025574 
	C590.269897,693.372314 590.082886,693.674805 589.895874,693.977295 
	C589.895813,693.977295 589.972656,693.969177 589.655945,694.062988 
	C588.854248,695.088379 588.369263,696.019958 587.884277,696.951477 
	C587.884277,696.951477 587.961670,696.976868 587.644653,697.071289 
	C582.494446,701.660950 577.898926,706.449219 572.783691,710.596558 
	C557.552551,722.946045 539.845337,729.418274 520.445496,730.908875 
	C503.173340,732.236023 486.637421,728.682800 470.575958,721.335388 
	C457.887146,715.288269 447.797729,706.397888 437.975769,696.643311 
	C426.451874,682.644897 418.671143,667.121155 414.062836,649.525757 
	C413.290436,639.730713 412.561615,630.361938 411.832825,620.993225 
	C411.876312,619.289551 411.919769,617.585876 411.965942,615.185608 
	C411.918488,614.310852 411.868378,614.132751 411.818268,613.954590 
	C411.837158,613.530884 411.856049,613.107117 411.891602,612.088196 
	C411.854523,611.310120 411.800751,611.127258 411.746979,610.944336 
	C411.746979,610.944336 411.857666,610.475037 411.936584,610.247314 
	C413.312958,603.970581 414.451233,597.882019 415.938354,591.879944 
	C420.032135,575.357849 427.668365,560.655457 439.359467,548.233643 
	C443.859009,543.452881 448.870941,539.154419 453.833801,534.364258 
	C468.459442,523.675537 484.280640,516.733093 502.586273,514.914795 
	C515.662109,512.794067 527.928955,515.213867 540.564026,518.063843 
	C549.733215,522.314331 558.500854,526.526001 567.578125,530.881470 
	C571.383911,533.975525 574.957397,536.839539 578.361450,539.892456 
	C587.905090,548.451660 595.370972,558.602722 601.287354,570.364075 
	C604.646484,579.857422 607.837524,589.025635 611.095093,598.602844 
	C612.413513,605.717529 613.665283,612.423218 614.578796,619.779907 
	C613.957214,624.364563 613.866150,628.323730 613.349792,632.226562 
	C612.348145,639.796814 611.107300,647.335449 609.723389,654.984985 
	C609.381165,655.386841 609.281128,655.690735 609.108765,656.306641 
	C609.011475,657.044861 608.986389,657.471069 608.720581,657.993652 
	C608.381104,658.392029 608.282349,658.694092 608.108643,659.313843 
	C608.000183,660.065002 607.966797,660.498535 607.933472,660.932007 
z"/>
<path fill="#7383BB" opacity="1.000000" stroke="none" 
	d="
M608.961304,657.897339 
	C608.986389,657.471069 609.011475,657.044861 609.302612,656.172424 
	C609.797852,655.492371 609.930176,655.212646 609.965576,654.887146 
	C611.107300,647.335449 612.348145,639.796814 613.349792,632.226562 
	C613.866150,628.323730 613.957214,624.364563 614.585388,620.174194 
	C615.633057,623.984558 616.335815,628.051575 617.082581,632.556152 
	C617.406067,640.359863 617.685547,647.725952 617.932129,655.540283 
	C616.131714,657.291992 614.446655,658.734802 612.566650,659.848633 
	C611.374023,660.555298 609.891296,660.772156 608.236084,661.070312 
	C607.966797,660.498535 608.000183,660.065002 608.302429,659.181946 
	C608.801636,658.500854 608.931641,658.222534 608.961304,657.897339 
z"/>
<path fill="#299ABE" opacity="1.000000" stroke="none" 
	d="
M414.106445,649.952026 
	C418.671143,667.121155 426.451874,682.644897 437.619019,696.684875 
	C437.091217,697.144958 436.718781,697.171509 436.470001,697.360657 
	C420.644257,709.395020 404.777954,721.377136 389.045410,733.532349 
	C384.803131,736.809998 380.969604,740.616760 376.948456,744.180603 
	C369.374237,739.025146 361.579865,734.158875 354.299774,728.616943 
	C349.068542,724.634705 344.523987,719.750366 339.396240,715.091187 
	C338.486816,713.849426 337.854218,712.784973 337.127319,711.077393 
	C338.744110,708.451111 340.212097,706.168518 342.213837,704.543396 
	C347.344574,700.377563 352.715729,696.508118 357.985077,692.512695 
	C376.693481,678.327515 395.399536,664.139221 414.106445,649.952026 
z"/>
<path fill="#35A0C1" opacity="1.000000" stroke="none" 
	d="
M377.130493,744.459290 
	C380.969604,740.616760 384.803131,736.809998 389.045410,733.532349 
	C404.777954,721.377136 420.644257,709.395020 436.470001,697.360657 
	C436.718781,697.171509 437.091217,697.144958 437.762756,697.000977 
	C447.797729,706.397888 457.887146,715.288269 470.201141,721.487305 
	C456.855743,732.046509 443.521759,742.105896 430.403076,752.438538 
	C426.927734,755.175720 424.114899,758.754150 420.997864,761.946289 
	C416.248993,760.670471 411.500153,759.394653 406.373535,758.101868 
	C396.434692,753.635986 386.873627,749.187012 377.130493,744.459290 
z"/>
<path fill="#3495BD" opacity="1.000000" stroke="none" 
	d="
M414.062836,649.525757 
	C395.399536,664.139221 376.693481,678.327515 357.985077,692.512695 
	C352.715729,696.508118 347.344574,700.377563 342.213837,704.543396 
	C340.212097,706.168518 338.744110,708.451111 336.983398,710.794922 
	C331.624054,704.030762 326.314240,696.905884 320.913696,689.445557 
	C341.216766,673.572571 361.571777,657.983582 382.021484,642.519897 
	C391.636597,635.249084 401.434082,628.219482 411.490906,621.036926 
	C412.561615,630.361938 413.290436,639.730713 414.062836,649.525757 
z"/>
<path fill="#275C8D" opacity="1.000000" stroke="none" 
	d="
M411.678680,614.065674 
	C411.868378,614.132751 411.918488,614.310852 411.916931,614.761719 
	C411.756500,614.748535 411.647797,614.462646 411.678680,614.065674 
z"/>
<path fill="#275C8D" opacity="1.000000" stroke="none" 
	d="
M411.603485,611.056152 
	C411.800751,611.127258 411.854523,611.310120 411.848297,611.772583 
	C411.678894,611.757446 411.569427,611.462769 411.603485,611.056152 
z"/>
<path fill="#42A5C4" opacity="1.000000" stroke="none" 
	d="
M421.350677,762.119263 
	C424.114899,758.754150 426.927734,755.175720 430.403076,752.438538 
	C443.521759,742.105896 456.855743,732.046509 470.483948,721.732910 
	C486.637421,728.682800 503.173340,732.236023 520.445496,730.908875 
	C539.845337,729.418274 557.552551,722.946045 572.783691,710.596558 
	C577.898926,706.449219 582.494446,701.660950 587.636414,697.031372 
	C585.482849,700.900391 583.656860,705.533630 580.436707,708.786804 
	C571.363098,717.953369 561.716431,726.552734 552.146851,735.675293 
	C538.591614,744.476440 524.993591,752.602966 509.781067,757.575439 
	C507.426544,758.345032 505.079315,759.137085 502.355438,759.993164 
	C484.664307,765.297180 466.904236,766.607544 448.465698,766.085449 
	C439.232880,764.842529 430.468201,763.567383 421.350677,762.119263 
z"/>
<path fill="#42A5C4" opacity="1.000000" stroke="none" 
	d="
M588.249390,696.926514 
	C588.369263,696.019958 588.854248,695.088379 589.642212,694.026855 
	C589.501709,694.898499 589.058105,695.900085 588.249390,696.926514 
z"/>
<path fill="#42A5C4" opacity="1.000000" stroke="none" 
	d="
M590.147888,693.879395 
	C590.082886,693.674805 590.269897,693.372314 590.716797,692.981445 
	C590.784302,693.189209 590.592102,693.485291 590.147888,693.879395 
z"/>
<path fill="#42A5C4" opacity="1.000000" stroke="none" 
	d="
M591.151428,692.868286 
	C591.086182,692.670471 591.277710,692.360901 591.723450,691.932861 
	C591.787842,692.128418 591.598022,692.442505 591.151428,692.868286 
z"/>
<path fill="#6886BB" opacity="1.000000" stroke="none" 
	d="
M609.723389,654.984985 
	C609.930176,655.212646 609.797852,655.492371 609.374878,655.860474 
	C609.281128,655.690735 609.381165,655.386841 609.723389,654.984985 
z"/>
<path fill="#6886BB" opacity="1.000000" stroke="none" 
	d="
M608.720581,657.993652 
	C608.931641,658.222534 608.801636,658.500854 608.377441,658.864258 
	C608.282349,658.694092 608.381104,658.392029 608.720581,657.993652 
z"/>
</svg>